<svg id="Capa_1" enable-background="new 0 0 512 512" height="512" viewBox="0 0 512 512" width="512"
    xmlns="http://www.w3.org/2000/svg">
    <path id="XMLID_621_" d="m0 .626h455v420.082h-455z" fill="#e9edf5"/>
    <path id="XMLID_579_" d="m231.511.626h223.489v420.082h-223.489z" fill="#cdd2e1"/>
    <path id="XMLID_496_" d="m61.615.626h393.385v89.163h-393.385z" fill="#cdd2e1"/>
    <path id="XMLID_495_" d="m0 .626h88.275v89.163h-88.275z" fill="#ff9696"/>
    <path id="XMLID_494_" d="m231.511.626h223.489v89.163h-223.489z" fill="#afb4c8"/>
    <g fill="#bfe1ff">
        <path id="XMLID_1114_" d="m79.033 141.656h61.628v30h-61.628z"/>
        <path id="XMLID_1113_" d="m79.033 197.799h61.628v30h-61.628z"/>
        <path id="XMLID_1112_" d="m79.033 253.943h61.628v30h-61.628z"/>
        <path id="XMLID_1111_" d="m79.033 310.086h61.628v30h-61.628z"/>
    </g>
    <path id="XMLID_1367_" d="m512 410.477v-44.322l-24.608-5.35c-2.227-7.985-5.399-15.574-9.388-22.642l13.623-21.192-31.34-31.34-21.192 13.623c-7.068-3.989-14.657-7.162-22.642-9.388l-5.35-24.608h-44.322l-5.35 24.608c-7.985 2.227-15.574 5.399-22.642 9.388l-21.192-13.623-31.34 31.34 13.623 21.192c-3.989 7.068-7.162 14.657-9.388 22.642l-24.608 5.35v44.322l24.608 5.35c2.227 7.985 5.399 15.574 9.388 22.642l-13.623 21.192 31.34 31.34 21.192-13.623c7.068 3.989 14.657 7.162 22.642 9.388l5.35 24.608h44.322l5.35-24.608c7.985-2.227 15.574-5.399 22.642-9.388l21.192 13.623 31.34-31.34-13.623-21.192c3.989-7.068 7.162-14.657 9.388-22.642z" fill="#afb4c8"/>
    <circle id="XMLID_1407_" cx="388.942" cy="388.316" fill="#7e8596" r="42.06"/>
    <path id="XMLID_1109_" d="m193.667 141.656h189.447v30h-189.447z" fill="#87c7ff"/>
    <path id="XMLID_1108_" d="m193.667 197.799h146v30h-146z" fill="#87c7ff"/>
    <path id="XMLID_1107_" d="m193.667 253.943h88.667v30h-88.667z" fill="#87c7ff"/>
    <path id="XMLID_1106_" d="m193.667 310.086h37.844v30h-37.844z" fill="#87c7ff"/>
    <path id="XMLID_390_" d="m231.511 141.656h151.603v30h-151.603z" fill="#4a98f7"/>
    <path id="XMLID_414_" d="m231.511 197.799h108.156v30h-108.156z" fill="#4a98f7"/>
    <path id="XMLID_415_" d="m231.511 253.943h50.823v30h-50.823z" fill="#4a98f7"/>
    <path id="XMLID_917_" d="m512 410.477v-44.322l-24.608-5.35c-2.227-7.985-5.4-15.574-9.388-22.642l13.623-21.192-31.34-31.34-21.192 13.623c-7.068-3.989-14.657-7.162-22.642-9.388l-5.35-24.608h-22.161v246.116h22.161l5.35-24.608c7.985-2.227 15.574-5.4 22.642-9.388l21.192 13.623 31.34-31.34-13.623-21.192c3.989-7.068 7.162-14.657 9.388-22.642z" fill="#7e8596"/>
    <path id="XMLID_920_" d="m388.942 346.256v84.12c23.229 0 42.06-18.831 42.06-42.06s-18.831-42.06-42.06-42.06z" fill="#555a66"/>
</svg>