<?xml version="1.0" encoding="iso-8859-1"?>
<!-- Generator: Adobe Illustrator 19.0.0, SVG Export Plug-In . SVG Version: 6.00 Build 0)  -->
<svg version="1.1" id="Capa_1" xmlns="http://www.w3.org/2000/svg" xmlns:xlink="http://www.w3.org/1999/xlink" x="0px" y="0px"
	 viewBox="0 0 512 512" style="enable-background:new 0 0 512 512;" xml:space="preserve">
<path style="fill:#41C0F0;" d="M395.927,68.025v375.952c0,32.021-86.393,57.979-192.965,57.979S9.998,475.998,9.998,443.977V68.025
	H395.927z"/>
<g>
	<path style="fill:#D0E6EF;" d="M202.963,252.68C96.391,252.68,9.998,226.721,9.998,194.7v124.607
		c0,32.021,86.393,57.979,192.965,57.979s192.965-25.958,192.965-57.979V194.7C395.927,226.721,309.534,252.68,202.963,252.68z"/>
	<ellipse style="fill:#D0E6EF;" cx="202.963" cy="68.028" rx="192.965" ry="57.979"/>
</g>
<circle style="fill:#F25353;" cx="393.928" cy="393.978" r="107.98"/>
<path style="fill:#FEB756;" d="M470.283,470.332c19.539-19.54,31.625-46.534,31.625-76.352c0-59.636-48.344-107.98-107.98-107.98
	v107.98L470.283,470.332z"/>
<path d="M265.585,488.776c-20.071,2.107-41.14,3.175-62.623,3.175c-50.595,0-98.031-5.881-133.569-16.559
	c-36.46-10.954-49.397-23.774-49.397-31.421v-94.198c10.54,7.356,25.149,13.895,43.642,19.452
	c37.354,11.224,86.834,17.405,139.324,17.405c15.317,0,30.584-0.534,45.376-1.587c5.508-0.392,9.655-5.175,9.263-10.683
	c-0.392-5.508-5.188-9.678-10.683-9.263c-14.32,1.02-29.11,1.536-43.956,1.536c-50.595,0-98.031-5.881-133.569-16.559
	c-36.46-10.953-49.397-23.772-49.397-31.421v-94.197c10.54,7.356,25.15,13.896,43.643,19.452
	c37.353,11.223,86.833,17.404,139.323,17.404s101.969-6.182,139.323-17.404c18.494-5.557,33.104-12.098,43.643-19.452v21.86
	c0,5.521,4.477,9.998,9.998,9.998c5.521,0,9.998-4.477,9.998-9.998V68.019c0-20.575-22.006-38.063-63.639-50.573
	C304.932,6.224,255.453,0.042,202.963,0.042S100.993,6.224,63.639,17.446C22.006,29.956,0,47.443,0,68.019v375.952
	c0,20.575,22.006,38.063,63.638,50.572c37.354,11.224,86.834,17.405,139.324,17.405c22.177,0,43.948-1.105,64.71-3.284
	c5.492-0.576,9.476-5.496,8.899-10.987C275.995,492.185,271.056,488.206,265.585,488.776z M336.532,224.759
	c-35.538,10.678-82.974,16.559-133.569,16.559s-98.031-5.881-133.569-16.559c-36.46-10.955-49.397-23.774-49.397-31.422V99.139
	c10.54,7.356,25.149,13.895,43.642,19.452c37.354,11.224,86.834,17.405,139.324,17.405s101.969-6.182,139.324-17.405
	c18.493-5.557,33.103-12.097,43.642-19.452v94.198C385.929,200.985,372.993,213.804,336.532,224.759z M69.393,36.597
	c35.538-10.678,82.975-16.559,133.569-16.559s98.031,5.881,133.569,16.559c36.46,10.955,49.397,23.774,49.397,31.421
	c0,7.649-12.937,20.468-49.397,31.423c-35.538,10.678-82.974,16.559-133.569,16.559s-98.031-5.881-133.569-16.559
	c-36.46-10.955-49.397-23.774-49.397-31.423C19.996,60.371,32.933,47.552,69.393,36.597z"/>
<path d="M502.634,348.058c-2.146-5.086-8.01-7.472-13.1-5.323c-5.087,2.147-7.471,8.012-5.323,13.1
	c14.272,33.816,8.545,72.027-14.29,99.989l-65.995-65.986v-93.385c9.445,0.982,18.859,3.346,27.954,7.163
	c5.09,2.137,10.951-0.26,13.088-5.353c2.137-5.092-0.261-10.951-5.353-13.088c-44.392-18.623-95.072-8.659-129.11,25.381
	c-22.283,22.284-34.555,51.909-34.555,83.424c0,31.513,12.272,61.14,34.556,83.423s51.91,34.556,83.423,34.556
	c31.514,0,61.14-12.272,83.423-34.556C511.471,443.284,521.395,392.512,502.634,348.058z M324.644,463.263
	c-18.507-18.507-28.699-43.111-28.699-69.283c0-26.172,10.192-50.778,28.699-69.283c16.363-16.363,37.356-26.011,59.285-28.253
	v97.536c0,2.652,1.054,5.195,2.929,7.07l68.932,68.922c-17.431,14.243-39.052,21.99-61.864,21.99
	C367.755,491.962,343.151,481.77,324.644,463.263z"/>
<path d="M463.358,324.843c1.953,1.952,4.511,2.928,7.07,2.928c2.559,0,5.117-0.977,7.07-2.928c3.904-3.904,3.904-10.235,0-14.14
	l-0.218-0.216c-3.943-3.866-10.274-3.802-14.139,0.14c-3.865,3.943-3.803,10.273,0.14,14.139L463.358,324.843z"/>
<path d="M333.939,78.022c5.521,0,9.998-4.477,9.998-9.998v-0.061c0-5.521-4.477-9.968-9.998-9.968
	c-5.521,0-9.998,4.507-9.998,10.028S328.418,78.022,333.939,78.022z"/>
<path d="M202.963,55.037c33.525,0,65.2,2.234,89.19,6.29c0.564,0.095,1.125,0.142,1.679,0.142c4.789,0,9.021-3.453,9.847-8.333
	c0.921-5.444-2.747-10.604-8.191-11.525c-25.057-4.236-57.915-6.569-92.523-6.569c-5.521,0-9.998,4.477-9.998,9.998
	S197.442,55.037,202.963,55.037z"/>
<g>
</g>
<g>
</g>
<g>
</g>
<g>
</g>
<g>
</g>
<g>
</g>
<g>
</g>
<g>
</g>
<g>
</g>
<g>
</g>
<g>
</g>
<g>
</g>
<g>
</g>
<g>
</g>
<g>
</g>
</svg>
